<svg width="162" height="112" viewBox="0 0 162 112" fill="none" xmlns="http://www.w3.org/2000/svg">
<g clip-path="url(#clip0_10_44)">
<path fill-rule="evenodd" clip-rule="evenodd" d="M130.117 105.455C124.737 105.455 120.4 100.332 120.4 93.6798C120.4 87.0277 124.763 82.146 130.117 82.146C135.47 82.146 139.592 87.2691 139.592 93.6798C139.592 100.09 135.229 105.455 130.117 105.455Z" fill="black"/>
<path fill-rule="evenodd" clip-rule="evenodd" d="M130.117 111.356C122.194 111.356 115.796 103.416 115.796 93.6798C115.796 83.9431 122.194 76.245 130.117 76.245C138.04 76.245 144.196 84.1845 144.196 93.6798C144.196 103.175 137.799 111.356 130.117 111.356Z" fill="#67CDFD"/>
<path fill-rule="evenodd" clip-rule="evenodd" d="M161.568 10.3414H43.6328C37.2355 10.3414 30.5705 20.8559 23.9323 31.1022C18.3112 40.0878 11.4054 44.4331 5.75755 45.4524C-1.14832 47.2495 -0.398845 72.6238 1.15364 88.2615L9.07665 91.0779C9.85289 79.5441 17.7759 70.2902 27.4923 70.2902C37.2087 70.2902 44.8908 79.5173 45.6671 91.0779H111.166C111.915 79.5441 119.865 70.2902 129.581 70.2902C139.298 70.2902 146.98 79.5173 147.729 91.0779H161.273V39.0418L161.541 10.3414H161.568Z" fill="#727270"/>
<path fill-rule="evenodd" clip-rule="evenodd" d="M26.9837 104.409C21.8712 104.409 17.5082 99.0442 17.5082 92.6335C17.5082 86.2229 21.8712 80.8315 26.9837 80.8315C32.3638 80.8315 36.7001 85.9547 36.7001 92.6335C36.7001 99.3124 32.3638 104.409 26.9837 104.409Z" fill="black"/>
<path fill-rule="evenodd" clip-rule="evenodd" d="M26.9837 110.068C19.3016 110.068 12.9043 102.37 12.9043 92.6337C12.9043 82.897 19.3016 74.9307 26.9837 74.9307C34.6658 74.9307 41.304 82.8702 41.304 92.6337C41.304 102.397 34.9067 110.068 26.9837 110.068Z" fill="#67CDFD"/>
<path fill-rule="evenodd" clip-rule="evenodd" d="M49.7624 10.0732V4.9501C49.7624 2.37512 48.21 0.0683594 45.908 0.0683594C43.8737 0.0683594 42.0803 2.37512 42.0803 4.9501V10.0732H49.7624Z" fill="#FEFEFE"/>
<path fill-rule="evenodd" clip-rule="evenodd" d="M60.4959 45.4525H25.458L41.5717 14.6868H60.4959V45.4525Z" fill="#FEFEFE"/>
<path d="M104.26 18.281H72.782V46.9813H104.26V18.281Z" fill="#FEFEFE"/>
<path d="M146.712 18.281H112.183V46.9813H146.712V18.281Z" fill="#FEFEFE"/>
<path fill-rule="evenodd" clip-rule="evenodd" d="M86.0851 53.1505C92.991 53.1505 98.3711 59.8025 98.3711 68.2785C98.3711 76.7545 92.991 83.4066 86.0851 83.4066C79.1792 83.4066 73.7991 76.4863 73.7991 68.2785C73.7991 60.0708 79.4201 53.1505 86.0851 53.1505Z" fill="#FEFEFE"/>
<path d="M58.9702 49.8246H48.7452V53.1774H58.9702V49.8246Z" fill="#FEFEFE"/>
<path fill-rule="evenodd" clip-rule="evenodd" d="M83.7832 59.293H88.6548V65.194H93.5263V71.3364H88.6548V77.2374H83.7832V71.3364H78.9384V65.194H83.7832V59.293Z" fill="#67CDFD"/>
</g>
<defs>
<clipPath id="clip0_10_44">
<rect width="161.458" height="111.288" fill="white" transform="translate(0.109741 0.0683594)"/>
</clipPath>
</defs>
</svg>
