<svg width="129" height="117" viewBox="0 0 129 117" fill="none" xmlns="http://www.w3.org/2000/svg">
<g clip-path="url(#clip0_10_59)">
<path d="M28.394 54.7514L36.4515 25.071H43.5224L57.4791 76.8126L62.5767 57.4886L66.1121 54.7514H79.4522L87.5097 25.071H94.5805L102.638 54.7514H125.824C127.386 49.6855 128.373 44.2111 128.373 38.5324C128.393 17.2475 111.888 0.0683594 91.6412 0.0683594C81.0349 0.0683594 71.2097 4.95041 64.5294 12.3858C57.8491 4.95041 48.2294 0.0683594 37.6231 0.0683594C17.3767 0.0683594 0.686157 17.2475 0.686157 38.5324C0.686157 44.1907 1.85778 49.6651 3.4405 54.7514H28.394Z" fill="#6C6C6A"/>
<path d="M99.6987 62.1664H122.885C107.366 95.3602 64.5294 116.829 64.5294 116.829C64.5294 116.829 21.8988 95.3602 6.37988 62.1664H31.1484L34.6838 59.4292L39.987 40.1052L53.9437 91.8468H61.0146L69.072 62.1664H82.2477L85.7831 59.4292L90.8807 40.1052L96.1838 59.4292L99.7193 62.1664H99.6987Z" fill="#67CDFD"/>
</g>
<defs>
<clipPath id="clip0_10_59">
<rect width="127.707" height="116.761" fill="white" transform="translate(0.686157 0.0683594)"/>
</clipPath>
</defs>
</svg>
