<svg width="399" height="636" viewBox="0 0 399 636" fill="none" xmlns="http://www.w3.org/2000/svg">
<g style="mix-blend-mode:color-burn" opacity="0.2">
<path d="M225.544 635.574C318.571 635.574 393.984 629.06 393.984 621.024C393.984 612.988 318.571 606.473 225.544 606.473C132.518 606.473 57.1046 612.988 57.1046 621.024C57.1046 629.06 132.518 635.574 225.544 635.574Z" fill="#3B0372"/>
</g>
<path d="M328.296 619.725C310.881 620.114 289.209 618.02 278.388 616.815C274.407 616.371 271.44 613.453 271.388 609.969C271.345 606.93 271.356 603.763 271.398 600.576C271.686 583.485 273.158 565.905 273.158 565.905L274.108 564.329H321.306C321.306 564.329 337.185 595.379 343.322 603.734C349.457 612.098 352.53 619.165 328.296 619.723V619.725Z" fill="#787A75"/>
<g opacity="0.2">
<path d="M328.296 619.725C310.881 620.114 289.209 618.02 278.388 616.815C274.407 616.371 271.44 613.453 271.388 609.969C271.345 606.93 271.356 603.763 271.398 600.576C272.817 600.53 273.672 600.492 273.682 600.428C273.79 599.882 325.437 608.33 320.252 591.239C315.066 574.158 302.26 566.804 302.26 566.804L306.197 564.331H321.306C321.306 564.331 337.185 595.381 343.322 603.736C349.457 612.1 352.53 619.167 328.296 619.725Z" fill="#3B0372"/>
</g>
<path d="M323.795 622.548C307.258 622.548 288.322 620.724 277.979 619.569C272.467 618.953 268.257 614.843 268.183 610.01C267.888 590.801 269.943 565.952 269.964 565.704C269.996 565.324 270.118 564.953 270.32 564.616L271.272 563.037C271.823 562.122 272.916 561.548 274.107 561.548H321.306C322.572 561.548 323.719 562.195 324.233 563.2C324.391 563.509 340.079 594.154 346.019 602.243C349.294 606.704 352.564 611.832 349.875 616.221C347.389 620.282 340.757 622.217 328.376 622.499C326.875 622.533 325.344 622.548 323.793 622.548H323.795ZM276.27 567.105C275.893 571.917 274.328 593.14 274.585 609.937C274.619 612.056 276.39 613.789 278.798 614.058C289.929 615.302 311.148 617.332 328.21 616.943C341.002 616.653 343.669 614.516 344.223 613.613C345.383 611.717 342.046 607.172 340.62 605.231C335.178 597.818 322.639 573.721 319.231 567.105H276.27Z" fill="#3B0372"/>
<path d="M192.988 616H107.426C107.426 616 103.04 610.905 108.184 604.635C109.784 602.69 112.302 600.624 116.154 598.568C132.429 589.889 146.321 565.906 146.321 565.906L183.446 568.964L187.438 569.287C187.438 569.287 196.796 586.164 192.988 616Z" fill="#787A75"/>
<g opacity="0.2">
<path d="M192.988 616H107.426C107.426 616 103.04 610.905 108.184 604.635C108.194 604.644 108.205 604.635 108.205 604.626C109.186 603.264 164.421 610.349 178.015 599.05C191.609 587.749 179.969 569.565 179.969 569.565L183.446 568.964L187.438 569.287C187.438 569.287 196.796 586.164 192.988 616Z" fill="#3B0372"/>
</g>
<path d="M192.99 618.78H107.428C106.417 618.78 105.468 618.367 104.864 617.665C104.527 617.276 101.613 613.707 102.733 608.614C103.75 603.996 107.702 599.82 114.483 596.201C129.78 588.04 143.326 564.891 143.46 564.657C144.254 563.286 146.178 562.732 147.759 563.423C149.338 564.112 149.976 565.783 149.181 567.155C148.597 568.164 134.688 591.947 117.837 600.936C112.727 603.663 109.679 606.678 109.024 609.655C108.7 611.134 109.011 612.386 109.365 613.223H190.097C192.948 586.19 184.636 570.647 184.548 570.488C183.79 569.105 184.461 567.446 186.055 566.784C187.645 566.124 189.554 566.702 190.32 568.081C190.718 568.8 200.038 586.028 196.173 616.306C195.994 617.715 194.624 618.778 192.992 618.778L192.99 618.78Z" fill="#3B0372"/>
<path d="M324.06 564.507L292.377 565.905L269.872 566.895L230.186 486.52L212.942 487.622C212.942 487.622 195.27 569.655 194.95 570.108C194.769 570.377 176.478 569.302 160.995 568.339C149.589 567.635 139.707 566.987 139.707 566.987C130.157 529.629 129.367 486.074 135.544 437.601C135.662 436.693 135.778 435.796 135.896 434.888L259.265 441.362L302.792 443.65C314.094 480.637 320.666 521.321 324.06 564.505V564.507Z" fill="#01BCA8"/>
<g opacity="0.2">
<path d="M178.015 470.533C206.382 475.65 232.374 476.96 252.625 469.064C234.616 495.487 193.426 489.544 178.015 470.533Z" fill="#3B0372"/>
</g>
<g opacity="0.2">
<path d="M160.995 568.343C149.589 567.639 139.707 566.99 139.707 566.99C130.157 529.633 129.367 486.078 135.544 437.605L166.438 441.607C166.438 441.607 153.248 459.734 150.494 502.52C148.498 533.662 156.492 557.615 160.995 568.343Z" fill="#3B0372"/>
</g>
<g opacity="0.2">
<path d="M292.377 565.907C309.43 543.315 293.977 496.869 287.021 472.739C279.19 445.542 254.635 445.432 254.635 445.432L259.267 441.366L302.794 443.654C314.096 480.641 320.669 521.325 324.062 564.508L292.379 565.907H292.377Z" fill="#3B0372"/>
</g>
<path d="M194.106 572.932C193.588 572.932 193.009 572.911 192.352 572.888C190.805 572.833 188.611 572.73 185.99 572.593C181.383 572.352 174.989 571.985 166.983 571.497C153.204 570.658 139.464 569.761 139.464 569.761C138.056 569.669 136.883 568.789 136.578 567.592C127.193 530.888 125.894 486.133 132.713 434.571C132.909 433.104 134.414 432.024 136.088 432.115L302.988 440.878C304.365 440.951 305.536 441.783 305.889 442.94C316.601 478.006 323.589 517.71 327.252 564.319C327.311 565.062 327.022 565.795 326.452 566.353C325.881 566.91 325.077 567.246 324.22 567.283L270.036 569.671C268.709 569.737 267.459 569.061 266.93 567.992L228.142 489.433L215.63 490.233C198.299 570.665 198.085 570.974 197.691 571.543C196.893 572.698 195.853 572.932 194.104 572.932H194.106ZM142.326 564.373C159.648 565.495 184.625 567.038 192.35 567.328C194.805 556.537 205.476 507.134 209.792 487.108C210.06 485.868 211.256 484.939 212.704 484.848L229.953 483.744C231.325 483.667 232.593 484.331 233.13 485.42L271.939 564.022L320.639 561.875C317.016 517.693 310.35 479.837 300.289 446.302L138.736 437.819C132.504 486.725 133.709 529.271 142.326 564.371V564.373Z" fill="#3B0372"/>
<path d="M380.255 368.197C380.575 395.394 361.943 420.005 361.943 420.005C361.943 420.005 359.244 433.881 354.111 438.744C348.979 443.616 325.224 442.56 317.178 433.325C317.178 433.325 310.359 438.744 305.013 435.438C301.822 433.464 303.348 429.389 305.1 426.434C306.275 424.442 307.555 422.951 307.555 422.951C307.555 422.951 303.329 417.653 302.849 413.029C302.668 411.251 303.03 409.582 304.407 408.342C309.348 403.886 323.957 398.513 323.957 398.513L326.551 384.091L318.056 380.58L316.285 379.849L346.206 336.481C346.206 336.481 375.903 340.465 379.83 363.427C380.087 364.927 380.236 366.521 380.257 368.197H380.255Z" fill="#FCD5B4"/>
<g style="mix-blend-mode:color-burn" opacity="0.2">
<path d="M380.255 368.197C380.575 395.394 361.943 420.005 361.943 420.005C361.943 420.005 359.244 433.881 354.111 438.744C348.979 443.616 325.224 442.56 317.178 433.325C317.178 433.325 310.359 438.744 305.013 435.438C301.822 433.464 303.348 429.389 305.1 426.434C312.868 430.944 321.33 424.433 321.235 423.914C321.138 423.358 344.273 437.077 348.958 427.916C353.642 418.755 343.877 414.272 343.877 414.272C362.381 413.605 374.312 396.534 379.828 363.427C380.085 364.927 380.234 366.521 380.255 368.197Z" fill="#3B0372"/>
</g>
<g style="mix-blend-mode:color-burn" opacity="0.2">
<path d="M339.673 372.097C339.673 372.097 330.389 402.693 329.984 402.757C329.589 402.832 319.932 406.684 315.439 410.714C310.936 414.752 307.552 420.533 307.552 420.533C307.552 420.533 305.087 416.679 302.847 413.029C302.666 411.251 303.028 409.582 304.405 408.341C309.346 403.886 323.955 398.513 323.955 398.513L326.549 384.091L318.054 380.58L328.201 366.453L339.673 372.095V372.097Z" fill="#3B0372"/>
</g>
<path d="M341.896 444.385C341.124 444.385 340.437 444.367 339.877 444.345C332.298 444.036 322.719 441.942 316.774 437.073C313.119 439.086 307.773 440.562 303.152 437.704C301.46 436.657 300.392 435.14 300.062 433.316C299.392 429.606 302.034 425.239 303.725 422.901C301.3 419.354 296.752 411.222 302.095 406.414C306.493 402.455 316.885 398.195 321.064 396.578L323.018 385.71L314.906 382.358C314.092 382.02 313.479 381.402 313.218 380.653C312.957 379.904 313.073 379.092 313.536 378.422L343.456 335.055C344.126 334.085 345.41 333.568 346.692 333.736C347.056 333.785 383.116 338.959 383.457 368.169C383.76 394.087 367.716 417.287 364.989 421.041C364.364 424.031 361.644 435.727 356.478 440.626C353.084 443.846 346.162 444.387 341.898 444.387L341.896 444.385ZM317.178 430.553C317.279 430.553 317.378 430.557 317.479 430.566C318.372 430.641 319.193 431.032 319.734 431.653C323.195 435.626 331.22 438.429 340.174 438.793C346.896 439.065 350.781 437.794 351.753 436.872C355.434 433.382 358.08 423.181 358.789 419.546C358.863 419.168 359.027 418.806 359.269 418.484C359.45 418.245 377.356 394.217 377.053 368.226C376.807 347.137 354.796 341.007 347.789 339.591L320.837 378.654L327.923 381.583C329.201 382.111 329.928 383.307 329.711 384.52L327.119 398.943C326.949 399.893 326.224 400.697 325.205 401.074C321.309 402.508 310.388 406.958 306.704 410.273C304.493 412.263 307.881 418.48 310.184 421.368C310.967 422.349 310.94 423.652 310.119 424.61C308.355 426.677 306.028 430.48 306.39 432.459C306.462 432.857 306.628 433.029 306.872 433.181C309.978 435.103 314.982 431.311 315.031 431.275C315.622 430.812 316.391 430.557 317.18 430.557L317.178 430.553Z" fill="#3B0372"/>
<path d="M304.757 421.591L315.969 407.042C317.068 405.64 319.567 406.859 318.763 408.398L310.344 424.303C308.262 427.841 302.371 424.988 304.757 421.589V421.591Z" fill="#3B0372"/>
<path d="M148.808 373.44L140.869 388.409C113.146 413.436 78.2926 407.906 50.4415 375.903C37.3043 370.826 25.1293 364.52 19.1334 350.208C17.8639 347.16 16.8597 343.743 16.1986 339.9C16.1986 339.9 15.6217 337.102 16.9986 335.36C16.9986 335.36 12.3038 325.236 20.1566 324.623C27.9988 324.013 41.3928 332.089 41.6476 332.414C41.9149 332.738 46.4708 342.103 55.6268 342.242C55.6268 342.242 61.8691 332.831 59.7448 325.8C57.6311 318.77 67.7366 321.994 67.7366 321.994C67.7366 321.994 71.9725 322.633 74.5136 332.97C77.0526 343.299 71.3872 353.089 71.8672 353.134C72.3472 353.171 93.1245 362.211 103.209 353.125C108.811 348.078 122.247 354.903 133.098 361.972C141.785 367.623 148.806 373.44 148.806 373.44H148.808Z" fill="#FCD5B4"/>
<g style="mix-blend-mode:color-burn" opacity="0.2">
<path d="M148.808 373.44L140.869 388.409C113.146 413.436 78.2927 407.906 50.4415 375.903C37.3044 370.826 25.1293 364.52 19.1334 350.208C20.2219 348.977 21.0766 348.365 21.0766 348.365C29.6558 359.823 41.8434 367.215 64.7744 362.5C62.0312 366.27 57.1027 368.743 57.1027 368.743C71.9346 382.712 107.641 401.839 123.723 368.743L133.102 361.972C141.789 367.623 148.81 373.44 148.81 373.44H148.808Z" fill="#3B0372"/>
</g>
<path d="M103.057 406.854C102.129 406.854 101.198 406.83 100.266 406.781C81.9958 405.84 64.0691 395.942 48.3845 378.147C33.2979 372.256 17.1059 363.833 13.0363 340.315C12.9374 339.839 12.5269 337.438 13.5227 335.176C12.6574 332.867 11.411 328.235 13.7121 324.971C14.6069 323.699 16.4027 322.125 19.8681 321.855C28.9609 321.15 43.2917 329.62 44.2623 330.802C44.3107 330.863 44.4707 331.078 44.6812 331.442C46.1886 334.059 49.254 338.251 53.8078 339.247C55.5257 336.102 57.8605 330.503 56.6562 326.502C55.5846 322.946 56.9089 320.98 58.2058 319.954C61.4606 317.385 67.1428 318.863 68.6628 319.326C70.4987 319.759 75.0672 321.899 77.6462 332.383C79.5831 340.269 77.1999 347.745 75.7746 351.515C83.2884 354.07 94.8466 356.652 100.906 351.194C112.615 340.647 144.7 366.194 151.016 371.422C152.006 372.241 152.286 373.517 151.715 374.595L143.778 389.564C143.629 389.845 143.427 390.105 143.178 390.328C131.165 401.172 117.35 406.85 103.059 406.85L103.057 406.854ZM21.0702 327.367C20.8534 327.367 20.6449 327.374 20.4407 327.39C19.4576 327.467 19.2575 327.75 19.1712 327.871C18.3186 329.081 19.0996 332.449 19.9649 334.317C20.3649 335.179 20.2407 336.157 19.6365 336.925C19.2196 337.453 19.2281 338.823 19.3502 339.41C23.0218 360.622 37.3632 367.811 51.7361 373.363C52.2309 373.553 52.6625 373.851 52.9888 374.227C67.627 391.042 84.1053 400.383 100.642 401.234C113.843 401.92 126.822 396.932 138.186 386.813L144.932 374.092C131.428 363.253 110.67 350.406 105.516 355.053C98.6214 361.265 86.4464 361.567 71.2334 355.909C71.0734 355.848 70.9471 355.801 70.8608 355.77C70.1618 355.569 69.5513 355.163 69.1513 354.62C68.2671 353.418 68.6734 352.383 69.2376 350.952C70.3197 348.208 73.1935 340.912 71.3829 333.547C69.6166 326.358 67.1786 324.841 66.8354 324.66C66.7723 324.644 66.707 324.625 66.646 324.605C65.2607 324.172 63.4522 323.938 62.6606 324.064C62.6606 324.254 62.6922 324.583 62.848 325.097C65.2691 333.134 58.6795 343.206 58.3973 343.631C57.8163 344.507 56.6942 345.024 55.5678 345.024C49.014 344.925 43.1844 341.095 39.1233 334.223C36.6095 332.648 26.7293 327.369 21.0681 327.369L21.0702 327.367ZM71.5261 355.894H71.5303C71.5303 355.894 71.5282 355.894 71.5261 355.894ZM67.187 324.73C67.187 324.73 67.1912 324.73 67.1933 324.73C67.1933 324.73 67.1891 324.73 67.187 324.73ZM67.1786 324.73C67.1786 324.73 67.1828 324.73 67.1849 324.73C67.1849 324.73 67.1807 324.73 67.1786 324.73Z" fill="#3B0372"/>
<path d="M16.0386 350.928C13.0216 342.421 26.2114 337.292 30.4494 345.833C30.7041 346.486 31.0768 347.261 31.4684 347.82L34.2326 352.356C34.6621 353.036 34.3695 353.893 33.5779 354.256C32.8515 354.591 31.9652 354.39 31.5105 353.818C30.6136 352.624 27.2704 348.651 26.5798 347.462C26.184 346.815 25.544 346.259 24.824 345.98C22.6219 345.34 20.965 347.398 22.1082 349.141C23.7419 352.856 17.3502 354.742 16.0386 350.93V350.928Z" fill="#3B0372"/>
<path d="M15.7543 332.794C22.5945 330.959 27.5188 334.072 29.0157 339.907C29.4283 341.411 29.622 342.743 29.4957 344.344C29.4304 345.106 28.6641 345.678 27.7862 345.621C25.9882 345.459 26.4009 343.779 25.9082 342.63C25.3777 341.025 24.384 339.403 23.1482 338.185C21.8239 336.932 19.746 337.233 18.2365 337.919C14.308 339.256 11.9016 334.302 15.7543 332.796V332.794Z" fill="#3B0372"/>
<path d="M40.1655 355.179C44.2519 353.867 48.5867 353.421 52.9173 353.62C54.4542 353.843 58.8227 353.723 58.2101 355.835C58.0375 356.336 57.5385 356.672 56.9743 356.727C54.2647 357.042 51.6078 357.164 48.892 357.336C46.1635 357.476 43.395 357.657 40.656 357.604C39.1044 357.588 38.7297 355.643 40.1655 355.181V355.179Z" fill="#3B0372"/>
<path d="M348.955 331.895L336.183 353.164H336.172C336.172 353.164 336.151 353.209 336.109 353.293L334.155 356.535L317.765 383.814L301.098 379.851C301.578 401.925 305.228 443.524 305.228 443.524C276.171 445.118 251.543 445.608 230.787 445.387C225.344 445.332 220.18 445.22 215.26 445.072C152.579 443.183 131.555 434.613 131.555 434.613C136.848 419.303 139.89 398.376 141.608 374.163C131.715 371.514 124.001 368.114 118.068 364.715C116.841 364.012 115.7 363.317 114.622 362.621C114.59 362.594 114.548 362.575 114.515 362.555C104.42 355.996 100.758 350.004 100.758 350.004C100.758 350.004 113.67 331.265 124.993 319.788C136.326 308.302 173.152 310.415 173.152 310.415C173.152 310.415 191.986 309.406 192.83 309.627C193.685 309.85 244.157 304.718 244.157 304.718L261.04 312.398C306.285 315.296 348.96 331.897 348.96 331.897L348.955 331.895Z" fill="#01BCA8"/>
<g opacity="0.6">
<path d="M348.956 331.895L346.202 336.48C334.25 332.257 299.281 320.91 262.625 318.556L245.743 310.877C245.743 310.877 195.268 316.009 194.415 315.795C193.573 315.572 174.737 316.574 174.737 316.574C174.737 316.574 137.911 314.461 126.578 325.947C117.647 335.006 107.723 348.577 103.933 353.902C101.693 351.539 100.752 350.002 100.752 350.002C100.752 350.002 113.664 331.263 124.986 319.786C136.319 308.3 173.145 310.413 173.145 310.413C173.145 310.413 191.979 309.404 192.824 309.625C193.678 309.848 244.151 304.717 244.151 304.717L261.034 312.396C306.279 315.294 348.953 331.895 348.953 331.895H348.956Z" fill="white"/>
</g>
<g opacity="0.2">
<path d="M217.595 442.792C217.595 442.792 216.774 443.691 215.258 445.071C152.576 443.181 131.553 434.612 131.553 434.612C136.846 419.301 139.888 398.374 141.606 374.162C131.713 371.512 123.999 368.113 118.066 364.714C125.782 365.936 138.705 351.217 146.943 337.721C146.505 339.777 125.365 440.476 217.597 442.792H217.595Z" fill="#3B0372"/>
</g>
<g opacity="0.2">
<path d="M317.765 383.815L301.098 379.851C301.578 401.925 305.228 443.524 305.228 443.524C276.171 445.118 251.543 445.608 230.787 445.387C234.201 444.182 238.395 443.071 243.442 442.061C297.864 431.214 295.068 343.854 295.068 343.854L300.287 356.164C319.271 371.994 330.006 362.307 334.157 356.535L317.768 383.815H317.765Z" fill="#3B0372"/>
</g>
<path d="M243.442 328.787L203.466 326.862L189.339 309.627L196.165 305.683L254.583 308.576L253.461 321.29" fill="#FCD5B4"/>
<path d="M240.109 448.225C158.564 448.225 131.544 437.68 130.195 437.13C128.759 436.545 128.033 435.134 128.488 433.817C133.159 420.297 136.357 401.417 138.254 376.148C108.034 367.4 98.3352 351.976 97.9289 351.307C97.4047 350.448 97.4363 349.414 98.011 348.58C98.5437 347.807 111.192 329.505 122.561 317.975C134.45 305.919 169.76 307.451 173.147 307.628C187.598 306.853 191.607 306.773 192.977 306.851C195.481 306.795 224.675 303.898 243.785 301.957C244.418 301.891 245.071 301.996 245.644 302.255L261.937 309.667C306.974 312.69 349.833 329.194 350.265 329.362C351.069 329.675 351.69 330.263 351.979 330.987C352.267 331.711 352.2 332.506 351.793 333.184L320.601 385.097C319.904 386.256 318.372 386.835 316.917 386.492L304.401 383.513C305.15 405.924 308.382 442.919 308.416 443.312C308.481 444.054 308.201 444.787 307.639 445.348C307.077 445.909 306.279 446.251 305.426 446.299C280.535 447.666 258.878 448.225 240.111 448.225H240.109ZM135.448 432.929C145.985 436.068 191.099 446.752 301.79 440.926C300.967 431.185 298.295 398.48 297.893 379.896C297.874 379.021 298.331 378.188 299.129 377.65C299.927 377.113 300.967 376.93 301.942 377.164L316.119 380.538L344.513 333.281C333.915 329.496 298.011 317.551 260.802 315.164C260.364 315.137 259.939 315.031 259.551 314.856L243.549 307.577C196.497 312.356 192.998 312.5 192.066 312.323C192.274 312.367 192.415 312.376 192.434 312.378C191.213 312.308 181.767 312.736 173.345 313.187C173.211 313.194 173.076 313.194 172.937 313.187C163.139 312.628 135.848 313.052 127.426 321.592C118.22 330.927 107.782 345.379 104.529 349.978C107.554 353.756 118.245 364.997 142.555 371.51C143.968 371.888 144.898 373.056 144.806 374.337C143.008 399.606 139.94 418.817 135.448 432.93V432.929ZM192.992 306.855C193.184 306.866 193.323 306.88 193.432 306.897C193.23 306.864 193.072 306.857 192.992 306.855Z" fill="#3B0372"/>
<path d="M297.898 379.997C297.925 371.157 298.081 362.374 298.7 353.549C298.847 351.817 301.805 351.844 301.902 353.584C302.35 362.292 303.262 371.038 304.294 379.706C304.595 383.56 298.068 383.871 297.9 379.997H297.898Z" fill="#3B0372"/>
<path d="M138.418 373.959C139.972 364.059 141.774 354.288 145.423 344.759C145.711 344.034 146.621 343.646 147.458 343.896C148.256 344.134 148.698 344.869 148.488 345.563C145.993 354.927 145.252 364.781 144.804 374.386C144.513 378.219 138.035 377.8 138.42 373.959H138.418Z" fill="#3B0372"/>
<path d="M221.791 360.68C221.29 360.68 220.786 360.578 220.327 360.373C178.489 341.711 165.794 312.462 165.274 311.226C164.667 309.784 165.522 308.189 167.183 307.663C168.84 307.136 170.68 307.876 171.288 309.318C171.474 309.752 183.55 337.138 221.744 354.745C229.025 351.186 261.716 334.717 287.102 313.823C288.386 312.767 290.411 312.814 291.628 313.927C292.845 315.04 292.79 316.8 291.508 317.856C262.286 341.906 223.702 360.163 223.317 360.344C222.841 360.569 222.317 360.68 221.793 360.68H221.791Z" fill="#3B0372"/>
<path d="M220.559 343.142C219.988 343.142 219.42 343.01 218.919 342.749C206.439 336.287 185.215 312.681 184.291 310.649C183.64 309.222 184.447 307.608 186.091 307.043C187.638 306.513 189.384 307.103 190.123 308.37C191.556 310.355 209.66 330.607 220.898 337.252C225.85 335.422 243.256 328.147 261.756 310.468C262.943 309.331 264.968 309.249 266.278 310.28C267.587 311.312 267.684 313.068 266.495 314.205C243.53 336.148 222.502 342.716 221.618 342.985C221.273 343.089 220.915 343.14 220.559 343.14V343.142ZM190.146 308.408C190.182 308.472 190.215 308.538 190.245 308.606C190.224 308.56 190.196 308.492 190.146 308.408Z" fill="#3B0372"/>
<path d="M243.444 331.566C243.385 331.566 243.324 331.566 243.263 331.563L203.287 329.636C201.523 329.552 200.171 328.24 200.268 326.707C200.365 325.176 201.872 323.982 203.643 324.086L243.618 326.013C245.383 326.097 246.734 327.409 246.637 328.942C246.543 330.422 245.132 331.566 243.444 331.566Z" fill="#3B0372"/>
<path d="M141.61 365.181C141.347 365.181 141.077 365.137 140.816 365.048C112.02 355.011 104.325 344.348 104.013 343.9C103.403 343.025 103.725 341.886 104.733 341.354C105.74 340.828 107.047 341.104 107.66 341.97C107.756 342.105 115.195 352.124 142.41 361.609C143.505 361.99 144.033 363.069 143.595 364.019C143.26 364.743 142.458 365.181 141.614 365.181H141.61Z" fill="#3B0372"/>
<path d="M309.986 382.451C309.816 382.451 309.643 382.433 309.47 382.396C308.327 382.15 307.628 381.145 307.912 380.152C315.473 353.694 335.435 328.772 336.281 327.725C336.959 326.888 338.29 326.683 339.254 327.27C340.22 327.856 340.454 329.011 339.778 329.85C339.576 330.102 319.422 355.271 312.058 381.046C311.818 381.888 310.946 382.453 309.988 382.453L309.986 382.451Z" fill="#3B0372"/>
<path d="M250.53 437.777C187.939 437.777 133.961 429.84 133.271 429.738C132.111 429.564 131.33 428.605 131.53 427.598C131.73 426.589 132.837 425.907 133.995 426.086C134.873 426.218 222.86 439.147 304.18 431.836C305.352 431.726 306.401 432.47 306.523 433.488C306.645 434.506 305.792 435.416 304.62 435.522C286.579 437.145 268.206 437.777 250.53 437.777Z" fill="#3B0372"/>
<path d="M259.503 395.251C270.725 395.251 279.822 387.355 279.822 377.614C279.822 367.873 270.725 359.977 259.503 359.977C248.282 359.977 239.185 367.873 239.185 377.614C239.185 387.355 248.282 395.251 259.503 395.251Z" fill="#B39EC0"/>
<path d="M259.503 397.102C247.122 397.102 237.05 388.36 237.05 377.612C237.05 366.865 247.122 358.122 259.503 358.122C271.884 358.122 281.956 366.865 281.956 377.612C281.956 388.36 271.884 397.102 259.503 397.102ZM259.503 361.826C249.475 361.826 241.317 368.908 241.317 377.612C241.317 386.316 249.475 393.398 259.503 393.398C269.531 393.398 277.689 386.316 277.689 377.612C277.689 368.908 269.531 361.826 259.503 361.826Z" fill="#3B0372"/>
<path d="M264.099 330.896C264.099 330.83 264.088 330.766 264.088 330.702C263.876 326.932 263.533 323.69 263.097 320.91C261.4 310.119 258.252 306.201 255.585 304.951C250.848 302.599 212.325 284.304 196.594 301.736C192.668 306.089 189.615 311.444 187.268 316.955C180.929 331.758 179.541 347.745 179.468 348.663C179.286 350.951 181.272 352.943 183.918 353.109C186.575 353.248 188.859 351.543 189.051 349.246C189.072 349.032 190.491 332.619 196.788 318.64C198.742 314.306 201.163 310.192 204.15 306.877C213.146 296.91 240.166 306.997 250.442 311.999C250.88 312.564 252.362 314.87 253.461 321.29C253.888 323.829 254.261 327.025 254.497 331.007L254.518 365.355C254.528 367.652 256.673 369.523 259.32 369.523H259.33C261.977 369.514 264.133 367.652 264.122 365.346L264.101 330.897L264.099 330.896Z" fill="#B39EC0"/>
<g style="mix-blend-mode:color-burn" opacity="0.2">
<path d="M263.097 320.91C259.181 320.557 255.766 320.901 253.461 321.29C252.362 314.87 250.878 312.564 250.442 311.999C240.166 306.997 213.146 296.91 204.15 306.877C201.163 310.194 198.739 314.306 196.788 318.64C192.861 317.473 189.725 317.019 187.27 316.954C189.617 311.442 192.67 306.087 196.596 301.734C212.325 284.302 250.848 302.595 255.587 304.949C258.255 306.199 261.402 310.117 263.099 320.908L263.097 320.91Z" fill="#3B0372"/>
</g>
<path d="M259.326 371.369H259.322C255.501 371.369 252.389 368.67 252.387 365.353L252.356 331.005C251.911 323.238 250.876 318.662 250.086 316.204C249.524 314.455 248.107 312.973 246.196 312.136C231.618 305.757 212.3 300.848 205.832 308.017C193.603 321.566 191.201 349.097 191.18 349.375C190.91 352.65 187.59 355.174 183.794 354.956C179.954 354.719 177.072 351.835 177.341 348.526C177.447 347.246 180.078 317.027 194.914 300.59C211.786 281.893 252.107 301.085 256.648 303.335C262.114 305.899 265.35 315.08 266.221 330.605C266.225 330.711 266.228 330.802 266.228 330.894L266.259 365.344C266.259 366.952 265.541 368.465 264.232 369.604C262.922 370.742 261.181 371.367 259.328 371.367L259.326 371.369ZM253.172 313.041C253.608 313.723 253.954 314.45 254.198 315.21C255.429 319.048 256.246 324.329 256.621 330.912L256.655 365.349C256.655 366.625 257.853 367.665 259.322 367.665H259.326C260.038 367.665 260.707 367.424 261.211 366.987C261.714 366.55 261.989 365.969 261.989 365.351L261.956 330.773C260.876 311.555 256.434 307.451 254.575 306.577C250.318 304.468 212.936 286.628 198.272 302.878C184.234 318.432 181.699 347.557 181.598 348.79C181.495 350.062 182.605 351.172 184.072 351.263C185.558 351.34 186.817 350.397 186.923 349.116C186.946 348.833 189.384 320.238 202.475 305.735C212.605 294.505 239.974 305.265 248.12 308.83C249.137 309.276 250.067 309.841 250.882 310.501C251.313 310.453 251.762 310.526 252.132 310.693C252.139 310.694 252.141 310.696 252.143 310.696C252.143 310.696 252.145 310.696 252.147 310.696C252.895 311.02 253.328 311.674 253.328 312.354C253.328 312.584 253.28 312.816 253.175 313.039L253.172 313.041Z" fill="#3B0372"/>
<path d="M204.192 407.936C204.053 410.019 202.154 411.697 199.752 411.854L191.899 412.364L187.792 412.632C185.146 412.808 182.84 411.086 182.649 408.798C182.447 406.501 184.43 404.5 187.078 404.325L191.773 404.019L194.792 403.826C195.23 393.617 194.653 383.873 193.79 375.741C192.83 366.718 191.506 359.688 190.781 356.205C184.689 354.898 178.446 355.454 175.158 355.927C173.034 361.281 171.145 367.987 169.556 374.739C166.899 385.993 165.042 397.396 164.21 402.917C165.682 403.261 167.114 403.539 168.351 403.751C170.592 404.149 172.194 404.343 172.225 404.352C174.851 404.666 176.686 406.77 176.322 409.049C175.992 411.143 173.933 412.652 171.573 412.652C171.349 412.652 171.124 412.634 170.912 412.616C170.752 412.598 168.926 412.375 166.387 411.921C163.772 411.459 160.402 410.754 157.307 409.781C155.216 409.124 153.913 407.309 154.17 405.381C154.299 404.409 156.389 389.014 160.05 373.442C161.97 365.253 164.341 357.027 167.082 350.812C167.627 349.571 168.831 348.626 170.316 348.282C170.882 348.153 184.135 345.134 196.577 349.024C198.146 349.516 199.31 350.673 199.651 352.082C199.811 352.721 202.074 362.104 203.47 375.739C204.42 384.984 204.965 396.181 204.196 407.938L204.192 407.936Z" fill="#DBD4DF"/>
<g opacity="0.7">
<path d="M156.082 396.698C156.36 396.492 163.861 397.044 163.861 397.044L163.147 402.486C163.147 402.486 155.964 402.382 155.528 407.033" fill="white"/>
</g>
<path d="M203.466 375.737C199.175 376.477 193.788 375.737 193.788 375.737C192.828 366.715 191.504 359.684 190.779 356.201C184.687 354.894 178.444 355.45 175.156 355.923C173.032 361.278 171.143 367.983 169.554 374.735C162.937 375.448 160.046 373.438 160.046 373.438C161.966 365.249 164.337 357.023 167.078 350.808C167.623 349.567 168.827 348.622 170.312 348.279C170.878 348.149 184.131 345.13 196.573 349.021C198.142 349.512 199.306 350.669 199.647 352.078C199.807 352.718 202.07 362.1 203.466 375.735V375.737Z" fill="#B39EC0"/>
<g opacity="0.6">
<path d="M166.242 353.981C166.28 353.568 167.088 347.858 172.975 347.784C172.975 347.784 178.267 349.686 176.859 355.708L175.156 355.921L174.404 357.899C174.404 357.899 165.886 357.802 166.242 353.979V353.981Z" fill="white"/>
</g>
<path d="M171.571 414.502C171.274 414.502 170.977 414.48 170.695 414.456C170.265 414.409 168.377 414.166 165.956 413.733C162.402 413.102 159.244 412.358 156.579 411.519C153.539 410.564 151.675 407.95 152.048 405.163C152.568 401.351 157.309 367.747 165.086 350.145C165.874 348.352 167.623 346.985 169.764 346.49C171.246 346.15 184.571 343.299 197.297 347.279C199.546 347.983 201.245 349.675 201.735 351.696C202.001 352.778 208.254 378.666 206.323 408.038C206.123 411.041 203.367 413.473 199.912 413.698L187.95 414.476C186.116 414.604 184.308 414.089 182.901 413.036C181.499 411.987 180.651 410.529 180.516 408.928C180.226 405.624 183.093 402.725 186.912 402.471L192.721 402.093C193.344 382.78 190.47 365.465 188.925 357.74C184.314 356.965 179.727 357.234 176.762 357.583C171.726 370.869 168.12 391.567 166.575 401.516C167.291 401.662 168.023 401.799 168.764 401.927C170.539 402.243 171.916 402.428 172.366 402.49C172.419 402.497 172.47 402.504 172.514 402.512C176.301 402.967 178.958 406.01 178.434 409.295C177.964 412.261 175.013 414.498 171.571 414.498V414.502ZM182.518 348.904C176.084 348.904 171.185 349.997 170.857 350.073C170.044 350.262 169.375 350.784 169.074 351.47C161.48 368.655 156.8 401.835 156.292 405.562C156.145 406.664 156.863 407.669 158.033 408.036C160.471 408.802 163.507 409.516 166.813 410.103C169.392 410.562 171.166 410.774 171.183 410.776C171.272 410.783 171.421 410.798 171.573 410.798C172.895 410.798 174.028 409.937 174.206 408.795C174.409 407.53 173.387 406.359 171.931 406.185C171.897 406.181 171.863 406.176 171.83 406.17L171.71 406.154C171.232 406.09 169.781 405.893 167.92 405.562C166.459 405.31 165.021 405.021 163.657 404.703C162.623 404.463 161.954 403.595 162.092 402.673C163.522 393.197 167.461 369.613 173.139 355.318C173.396 354.675 174.036 354.205 174.809 354.096C178.175 353.611 184.79 353.008 191.291 354.403C192.108 354.578 192.729 355.154 192.878 355.872C194.398 363.171 197.836 382.46 196.925 403.89C196.885 404.833 196.034 405.598 194.95 405.668L187.234 406.168C185.767 406.267 184.661 407.382 184.775 408.654C184.828 409.272 185.152 409.829 185.689 410.229C186.23 410.633 186.923 410.829 187.63 410.781L199.594 410.003C200.925 409.915 201.986 408.979 202.062 407.824C203.959 378.944 197.822 353.529 197.561 352.462C197.371 351.683 196.716 351.033 195.851 350.762C191.306 349.341 186.603 348.9 182.518 348.9V348.904Z" fill="#3B0372"/>
<path d="M166.819 376.742C161.568 376.742 159.029 375.101 158.716 374.884C157.796 374.244 157.646 373.078 158.383 372.279C159.111 371.49 160.433 371.355 161.351 371.969C161.465 372.036 163.916 373.476 169.293 372.899C170.457 372.769 171.528 373.495 171.672 374.511C171.817 375.527 170.985 376.452 169.815 376.576C168.733 376.691 167.735 376.742 166.819 376.742Z" fill="#3B0372"/>
<path d="M199.039 377.921C196.066 377.921 193.613 377.588 193.46 377.568C192.295 377.407 191.504 376.461 191.687 375.45C191.87 374.439 192.952 373.749 194.129 373.909C194.177 373.917 199.199 374.589 203.049 373.922C204.209 373.723 205.329 374.375 205.559 375.377C205.788 376.38 205.039 377.356 203.883 377.555C202.298 377.829 200.597 377.921 199.039 377.921Z" fill="#3B0372"/>
<path d="M176.32 409.047C175.99 411.141 173.931 412.651 171.571 412.651C171.347 412.651 171.122 412.632 170.91 412.614C170.749 412.596 168.924 412.373 166.385 411.92C166.267 408.446 167.227 405.723 168.349 403.749C170.589 404.147 172.192 404.341 172.223 404.35C174.849 404.664 176.684 406.768 176.32 409.047Z" fill="#3B0372"/>
<path d="M191.899 412.364L187.792 412.632C185.146 412.808 182.84 411.086 182.649 408.798C182.447 406.501 184.43 404.5 187.078 404.325L191.773 404.019C192.552 406.929 192.2 410.207 191.902 412.366L191.899 412.364Z" fill="#3B0372"/>
<path d="M259.503 388.776C266.605 388.776 272.362 383.779 272.362 377.614C272.362 371.449 266.605 366.451 259.503 366.451C252.401 366.451 246.644 371.449 246.644 377.614C246.644 383.779 252.401 388.776 259.503 388.776Z" fill="#DBD4DF"/>
<path d="M259.503 390.627C251.235 390.627 244.511 384.79 244.511 377.614C244.511 370.437 251.235 364.6 259.503 364.6C267.771 364.6 274.495 370.437 274.495 377.614C274.495 384.79 267.771 390.627 259.503 390.627ZM259.503 368.305C253.589 368.305 248.779 372.48 248.779 377.614C248.779 382.747 253.589 386.923 259.503 386.923C265.417 386.923 270.227 382.747 270.227 377.614C270.227 372.48 265.417 368.305 259.503 368.305Z" fill="#3B0372"/>
<g opacity="0.2">
<path d="M114.523 362.5C114.555 362.537 114.586 362.584 114.62 362.62C114.588 362.593 114.546 362.575 114.512 362.555L114.523 362.5Z" fill="#3B0372"/>
</g>
<path d="M44.5634 338.527C-23.1665 310.961 4.00249 256.476 44.5634 284.875C85.1348 256.474 112.293 310.959 44.5634 338.527Z" fill="#FF67A0"/>
<g opacity="0.6">
<path d="M76.9493 296.268C76.9493 303.32 72.8629 309.037 67.8207 309.037C62.7785 309.037 65.0417 303.916 65.0417 296.866C65.0417 289.815 62.7785 283.499 67.8207 283.499C72.8629 283.499 76.9493 289.216 76.9493 296.268Z" fill="white"/>
</g>
<path d="M44.5636 341.307C44.0983 341.307 43.6351 341.219 43.2056 341.044C16.3355 330.108 0.236247 313.271 0.135193 296.007C0.0825598 286.869 4.8995 279.386 13.0239 275.992C22.0178 272.235 33.4075 274.201 44.5636 281.365C55.7259 274.201 67.1198 272.236 76.1116 275.994C84.2339 279.387 89.0508 286.869 88.9982 296.007C88.8972 313.271 72.7936 330.108 45.9236 341.044C45.492 341.219 45.0288 341.307 44.5636 341.307ZM22.7504 279.682C20.2578 279.682 17.9209 280.117 15.8008 281.003C9.96068 283.443 6.49745 289.042 6.53745 295.981C6.60482 307.429 16.6619 323.712 44.5636 335.451C72.4694 323.712 82.5265 307.427 82.5939 295.981C82.6339 289.044 79.1728 283.445 73.3347 281.005C66.1156 277.989 56.3617 280.19 46.5741 287.043C45.3993 287.863 43.7256 287.863 42.5551 287.043C35.6433 282.204 28.7485 279.684 22.7504 279.684V279.682Z" fill="#3B0372"/>
<path d="M44.5657 329.265C44.511 329.265 44.4541 329.265 44.3973 329.262C43.2983 329.202 42.3551 328.564 42.0225 327.652L31.2602 298.269L26.1148 310.426C25.7295 311.338 24.7295 311.943 23.6116 311.943H7.14595C5.67224 311.943 4.47852 310.906 4.47852 309.627C4.47852 308.348 5.67224 307.312 7.14595 307.312H21.7505L28.9401 290.325C29.3338 289.397 30.378 288.781 31.5023 288.808C32.6433 288.83 33.6413 289.479 33.9865 290.422L45.0268 320.561L51.6711 308.067C52.1069 307.246 53.0522 306.721 54.0923 306.721H80.9728C82.4465 306.721 83.6403 307.758 83.6403 309.037C83.6403 310.316 82.4465 311.352 80.9728 311.352H55.7976L46.9868 327.92C46.5489 328.745 45.6015 329.265 44.5657 329.265Z" fill="#3B0372"/>
<path d="M386.657 156.585L376.819 154.381L381.579 166.238C381.579 166.238 380.31 169.823 377.781 175.483C372.137 188.08 360.185 210.933 341.894 227.207C340.903 228.086 339.665 228.903 338.191 229.643C308.952 244.437 189.106 232.293 136.412 226.057C121.014 224.232 111.346 222.909 111.346 222.909C96.2572 205.18 85.4044 183.568 82.2569 154.937L65.9197 158.586L77.1894 140.949C68.0861 134.511 60.8522 125.925 57.3721 113.003L68.1703 115.207C61.3091 102.034 57.6922 83.602 48.6962 69.4571C48.6962 69.4571 68.0861 58.2947 113.321 58.0919C117.632 58.0645 122.178 58.1467 126.959 58.3422L106.95 40.9737C106.95 40.9737 133.789 39.3892 152.355 45.6612C152.355 45.6612 146.081 21.9567 144.896 6.25667C144.896 6.25667 198.859 -11.4171 271.819 33.0167C274.253 34.4897 276.718 36.0449 279.192 37.6659C279.192 37.6659 278.082 27.7444 272.522 13.1372L272.533 13.1463C273.419 13.3126 314.609 21.5108 344.435 69.3639L356.025 49.5227C356.025 49.5227 363.644 59.0257 354.286 81.8969C354.713 81.4053 368.512 65.6778 394.836 63.2966L366.419 85.7584C366.419 85.7584 376.183 86.9993 384.998 97.4763L361.661 93.613C361.661 93.613 379.438 109.944 386.504 128.961L375.95 128.886C375.95 128.886 382.929 141.223 386.664 156.581L386.657 156.585Z" fill="#D1623C"/>
<g style="mix-blend-mode:color-burn" opacity="0.2">
<path d="M379.965 170.384C374.32 182.981 360.181 210.931 341.89 227.207C340.898 228.086 339.661 228.903 338.187 229.643C326.77 221.798 314.603 202.567 313.473 197.788C312.096 191.998 304.477 141.201 304.477 141.201L323.631 112.495C323.631 112.495 318.765 128.158 329.243 140.561C339.722 152.965 357.709 194.025 368.503 184.376C372.651 180.668 377.956 172.777 379.962 170.386L379.965 170.384Z" fill="#3B0372"/>
</g>
<g style="mix-blend-mode:color-burn" opacity="0.2">
<path d="M297.76 131.371C297.76 131.371 311.096 117.855 308.554 93.6093C308.554 93.6093 324.085 98.6916 322.788 110.793C316.226 121.554 307.554 127.692 297.76 131.371Z" fill="#3B0372"/>
</g>
<g style="mix-blend-mode:color-burn" opacity="0.2">
<path d="M306.496 62.7502C306.496 62.7502 289.304 47.7263 271.815 33.0168C274.249 34.4897 276.714 36.0449 279.188 37.6659C279.188 37.6659 278.078 27.7444 272.518 13.1372L272.529 13.1463C273.169 13.5173 293.519 25.5861 306.496 62.7502Z" fill="#3B0372"/>
</g>
<g style="mix-blend-mode:color-burn" opacity="0.2">
<path d="M206.007 62.7502C206.007 62.7502 179.499 60.6851 152.353 45.6594C152.353 45.6594 146.079 21.9549 144.894 6.25488C144.894 6.25488 182.99 26.2349 206.007 62.7502Z" fill="#3B0372"/>
</g>
<g style="mix-blend-mode:color-burn" opacity="0.2">
<path d="M113.316 58.0919C117.628 58.0645 122.174 58.1467 126.955 58.3422L106.946 40.9737C106.946 40.9737 141.713 49.1061 158.861 66.058C158.861 66.058 133.378 62.964 113.316 58.0919Z" fill="#3B0372"/>
</g>
<g style="mix-blend-mode:color-burn" opacity="0.2">
<path d="M162.094 135.92C162.094 135.92 142.812 215.489 136.41 226.057C121.011 224.232 111.344 222.909 111.344 222.909C99.1793 208.616 89.7665 191.794 84.9222 170.796C97.1182 159.032 99.072 141.848 99.072 141.848C94.4719 147.433 88.1243 152.111 82.3389 155.668C82.3074 155.426 82.2863 155.176 82.2526 154.937L65.9154 158.586L77.1852 140.949C76.1178 140.198 75.082 139.412 74.0693 138.597C92.295 139.986 98.8572 131.002 98.8572 131.002C71.124 127.696 57.3679 113.005 57.3679 113.005L68.166 115.209C61.3048 102.036 57.6879 83.6038 48.6919 69.4589C65.147 90.541 83.9285 108.67 111.876 115.115L100.287 98.0246C100.287 98.0246 127.401 121.283 146.547 116.477L162.094 135.92Z" fill="#3B0372"/>
</g>
<path d="M281.554 239.51C263.602 239.51 241.919 238.561 216.403 236.671C162.589 232.686 111.356 225.721 110.845 225.652C110.013 225.538 109.266 225.145 108.767 224.557C92.4066 205.33 82.8001 183.67 79.4547 158.429L66.7134 161.278C65.4713 161.554 64.1639 161.165 63.3807 160.288C62.5975 159.408 62.4944 158.211 63.1154 157.239L73.1135 141.592C63.4944 134.207 57.3153 125.035 54.2521 113.63C54.0015 112.694 54.3257 111.711 55.1089 111.031C55.8942 110.351 57.029 110.075 58.1027 110.293L62.8354 111.259C60.9091 106.831 59.2101 102.054 57.4416 97.0798C54.2226 88.03 50.8962 78.6714 45.8898 70.7967C45.0834 69.5302 45.534 67.9385 46.9235 67.138C47.8582 66.5989 69.3787 54.5776 118.961 55.3306L104.687 42.9401C103.798 42.1689 103.512 41.0194 103.952 39.9997C104.392 38.9799 105.481 38.2763 106.733 38.2032C107.752 38.1429 129.746 36.9167 148.018 41.4726C146.117 33.6802 142.578 18.0514 141.696 6.43397C141.603 5.2132 142.441 4.08381 143.759 3.65252C144.374 3.44967 159.105 -1.26528 183.527 0.328296C204.666 1.70989 237.229 8.31447 274.794 31.4323C273.842 27.2145 272.206 21.1764 269.48 14.0126C269.12 13.066 269.371 12.0243 270.139 11.2823C270.907 10.5422 272.072 10.2151 273.198 10.4252C274.905 10.7469 314.102 18.585 344.284 63.4666L353.162 48.2636C353.671 47.3919 354.671 46.8162 355.796 46.7486C356.932 46.6828 358.002 47.1306 358.646 47.9328C358.941 48.3002 364.741 55.8331 360.682 72.5291C367.785 67.615 379.076 61.926 394.5 60.5353C395.877 60.4128 397.188 61.0689 397.752 62.1636C398.319 63.2601 398.009 64.5466 396.986 65.3544L372.558 84.6619C376.628 86.3158 382.295 89.5596 387.573 95.8334C388.348 96.7545 388.396 97.9935 387.693 98.9584C386.992 99.9215 385.683 100.419 384.39 100.201L369.96 97.8126C375.948 104.399 384.904 115.616 389.544 128.105C389.86 128.955 389.685 129.883 389.076 130.603C388.474 131.316 387.514 131.738 386.495 131.738H386.472L380.906 131.702C383.316 136.632 387.259 145.6 389.786 156.015C390.013 156.956 389.666 157.932 388.866 158.597C388.066 159.262 386.925 159.52 385.853 159.279L381.805 158.372L384.596 165.319C384.819 165.876 384.834 166.483 384.636 167.047C384.089 168.601 370.926 205.355 344.181 229.15C336.404 236.068 315.751 239.51 281.552 239.51H281.554ZM113.144 220.339C170.429 228.097 318.961 243.631 339.597 225.27C363.086 204.372 376.063 171.921 378.198 166.273L373.79 155.3C373.4 154.332 373.657 153.257 374.455 152.502C375.255 151.748 376.47 151.437 377.611 151.693L382.339 152.753C378.613 139.991 373.127 130.225 373.065 130.117C372.577 129.253 372.636 128.23 373.228 127.413C373.813 126.603 374.838 126.111 375.939 126.111H375.962L381.939 126.15C374.444 109.549 359.484 95.6653 359.324 95.5173C358.37 94.6401 358.177 93.3298 358.844 92.2735C359.511 91.2172 360.893 90.6543 362.251 90.8791L376.072 93.1671C370.649 89.2252 366.179 88.5417 365.924 88.5051C364.712 88.3334 363.707 87.5731 363.358 86.5516C363.008 85.53 363.352 84.4225 364.259 83.7043L384.116 68.0079C366.328 72.7485 356.949 83.4302 356.84 83.5581C355.892 84.6601 354.16 84.9963 352.762 84.3476C351.366 83.6988 350.724 82.2642 351.254 80.9704C355.972 69.4462 356.151 61.5715 355.349 56.8072L347.284 70.6176C346.745 71.5387 345.661 72.1253 344.471 72.1399C343.28 72.1344 342.181 71.5935 341.612 70.6834C318.932 34.3125 289.506 21.3847 277.404 17.4099C281.426 29.2795 282.329 37.0318 282.371 37.3991C282.493 38.4975 281.857 39.5537 280.748 40.0929C279.638 40.6301 278.27 40.5497 277.253 39.8845C238.446 14.4293 204.822 7.35138 183.449 5.89669C165.638 4.6814 153.145 7.06446 148.273 8.2432C149.799 23.49 155.408 44.8133 155.467 45.0381C155.732 46.0414 155.336 47.0904 154.442 47.7629C153.545 48.4372 152.292 48.6236 151.187 48.2508C139.281 44.2321 123.515 43.5816 114.477 43.5834L129.212 56.3741C130.146 57.1855 130.41 58.4135 129.875 59.4625C129.34 60.5133 128.108 61.1749 126.795 61.1146C83.6001 59.331 60.2796 67.4341 52.9826 70.5755C57.4753 78.3479 60.5596 87.023 63.5533 95.4405C65.9618 102.213 68.2376 108.611 71.0756 114.057C71.5766 115.022 71.4061 116.152 70.6314 116.968C69.8545 117.785 68.6145 118.149 67.4271 117.908L61.8754 116.773C65.1639 125.74 70.7535 132.815 79.2042 138.792C80.4063 139.642 80.7348 141.119 79.9811 142.294L72.3219 154.282L81.4485 152.243C82.3579 152.042 83.318 152.192 84.0843 152.66C84.8506 153.126 85.3433 153.86 85.4338 154.67C88.2086 179.86 97.2762 201.355 113.142 220.339H113.144Z" fill="#3B0372"/>
<path d="M370.354 254.453C374.946 242.552 369.37 230.201 357.898 226.865C346.426 223.529 333.404 230.473 328.811 242.373C324.219 254.274 329.795 266.626 341.267 269.961C352.739 273.297 365.761 266.354 370.354 254.453Z" fill="#FCD5B4"/>
<g style="mix-blend-mode:color-burn" opacity="0.2">
<path d="M370.394 254.495C365.794 266.398 352.777 273.337 341.305 270.001C330.761 266.935 325.191 256.255 327.934 245.306C329.631 251.79 334.401 257.061 341.305 259.062C352.777 262.406 365.796 255.458 370.394 243.565C370.766 242.602 371.065 241.629 371.312 240.666C372.432 244.946 372.219 249.753 370.394 254.495Z" fill="#3B0372"/>
</g>
<path d="M347.259 273.622C344.899 273.622 342.555 273.295 340.282 272.633C333.821 270.753 328.772 266.42 326.067 260.429C323.441 254.612 323.349 247.9 325.81 241.525C328.269 235.153 333.002 229.842 339.136 226.573C345.452 223.206 352.49 222.388 358.954 224.266C365.415 226.147 370.463 230.48 373.169 236.47C375.794 242.287 375.887 249 373.426 255.374C370.967 261.747 366.234 267.057 360.099 270.327C356.004 272.509 351.606 273.62 347.259 273.62V273.622ZM351.996 228.844C348.808 228.844 345.551 229.678 342.486 231.31C337.631 233.897 333.865 238.154 331.882 243.291C329.898 248.43 329.951 253.795 332.029 258.4C334.029 262.832 337.684 266.016 342.318 267.363C346.949 268.711 352.076 268.081 356.749 265.592C361.604 263.004 365.371 258.748 367.354 253.611C369.337 248.472 369.284 243.106 367.206 238.501C365.206 234.069 361.552 230.887 356.918 229.539C355.322 229.075 353.669 228.844 351.996 228.844Z" fill="#3B0372"/>
<path d="M112.971 264.824C124.442 261.486 130.017 249.134 125.422 237.234C120.827 225.334 107.803 218.393 96.3316 221.73C84.8606 225.068 79.2865 237.42 83.8814 249.32C88.4764 261.22 101.5 268.161 112.971 264.824Z" fill="#FCD5B4"/>
<g style="mix-blend-mode:color-burn" opacity="0.2">
<path d="M83.855 249.351C88.4551 261.253 101.472 268.192 112.944 264.857C123.487 261.79 129.058 251.11 126.315 240.162C124.618 246.646 119.847 251.916 112.944 253.918C101.472 257.262 88.453 250.314 83.855 238.42C83.4824 237.457 83.1834 236.485 82.9371 235.522C81.8171 239.802 82.0297 244.608 83.855 249.351Z" fill="#3B0372"/>
</g>
<path d="M107.064 268.465C95.9919 268.465 85.0843 261.262 80.8252 250.232C78.3662 243.859 78.4567 237.145 81.0821 231.328C83.7874 225.337 88.8359 221.003 95.2971 219.124C101.76 217.245 108.796 218.064 115.114 221.43C121.247 224.7 125.98 230.01 128.439 236.383C130.898 242.755 130.807 249.468 128.182 255.285C125.477 261.275 120.428 265.608 113.967 267.489C111.697 268.148 109.377 268.463 107.064 268.463V268.465ZM86.8969 248.466C90.9223 258.894 102.148 265.067 111.933 262.22C116.567 260.871 120.222 257.69 122.222 253.258C124.3 248.653 124.353 243.287 122.369 238.148C120.386 233.009 116.62 228.755 111.765 226.167C107.091 223.676 101.967 223.046 97.333 224.396C92.6992 225.743 89.0444 228.927 87.0443 233.358C84.9664 237.964 84.9137 243.329 86.8969 248.468V248.466Z" fill="#3B0372"/>
<path d="M344.431 182.493L342.661 213.618L341.892 227.207C338.328 293.567 288.11 311.926 217.595 309.406C140.667 306.098 103.148 278.55 111.342 222.909C111.106 216.211 111.171 209.347 111.384 202.938C111.512 199.074 111.693 195.388 111.895 191.998C111.906 191.943 111.906 191.878 111.916 191.823C112.578 180.967 113.453 173.27 113.453 173.27C124.039 151.512 140.281 135.921 140.281 135.921L146.235 140.053C142.585 104.781 156 97.8893 156 97.8893C175.602 87.4872 222.043 106.208 222.043 106.208C275.836 78.7627 316.334 99.9562 293.796 133.58C316.612 125.828 322.127 112.59 322.736 110.969L314.957 136.702L344.431 182.497V182.493Z" fill="#FCD5B4"/>
<g style="mix-blend-mode:color-burn" opacity="0.2">
<path d="M342.661 213.618L341.892 227.207C338.328 293.567 288.11 311.926 217.595 309.406C140.667 306.098 103.148 278.551 111.342 222.909C111.106 216.211 111.171 209.347 111.384 202.938C112.632 314.613 320.9 318.169 342.658 213.618H342.661Z" fill="#3B0372"/>
</g>
<path d="M140.58 175.487C150.703 163.626 171.979 160.83 184.244 172.018C186.002 173.612 183.636 176.072 181.522 174.873C169.004 167.691 154.73 169.685 143.696 178.018C141.768 179.46 139.048 177.243 140.58 175.487Z" fill="#3B0372"/>
<path d="M257.031 176.377C269.143 168.535 286.584 168.734 298.761 176.357C300.809 177.614 299.087 180.401 296.759 179.63C287.655 176.614 278.013 174.909 268.438 176.963C265.303 177.585 262.208 178.528 259.097 179.617C256.772 180.426 255.012 177.649 257.031 176.377Z" fill="#3B0372"/>
<path d="M257.164 225.926C264.673 220.948 275.12 219.162 284.095 221.893C287.143 222.726 289.847 224.246 292.249 225.929C293.013 226.465 293.133 227.439 292.516 228.102C291.956 228.707 291.005 228.83 290.255 228.486C280.272 223.978 269.21 224.449 259.145 228.49C257.235 229.372 255.484 227.105 257.164 225.926Z" fill="#3B0372"/>
<path d="M259.594 228.952C266.122 227.561 272.958 227.887 279.369 229.486C281.508 230.008 283.571 230.785 285.514 231.714C286.207 232.044 286.462 232.799 286.08 233.4C285.756 233.916 285.072 234.148 284.449 234.003C278.43 232.722 272.396 231.787 266.202 231.536C264.124 231.436 261.981 231.399 259.954 231.39C258.305 231.381 258.01 229.316 259.594 228.952Z" fill="#3B0372"/>
<path d="M247.248 251.973C248.92 254.075 250.863 256.155 253.073 257.883C253.829 258.514 254.661 259.108 255.45 259.804C256.499 260.685 255.448 262.258 254.061 261.928C249.223 260.795 245.225 257.024 244.511 252.649C244.37 251.235 246.484 250.758 247.248 251.973Z" fill="#3B0372"/>
<path d="M209.357 265.469C222.814 264.76 236.662 262.553 248.069 255.968C249.842 254.881 251.901 256.986 250.372 258.32C245.124 262.931 238.105 265.82 230.94 267.373C223.759 268.867 216.473 269.404 209.112 268.55C208.138 268.43 207.462 267.646 207.601 266.8C207.727 266.027 208.491 265.477 209.357 265.469Z" fill="#3B0372"/>
<path d="M229.677 312.405C225.717 312.405 221.649 312.33 217.464 312.18C172.865 310.263 141.397 300.099 123.906 281.966C109.851 267.397 104.546 247.483 108.135 222.773C107.316 199.169 110.243 173.255 110.274 172.996C110.306 172.718 110.386 172.446 110.51 172.19C121.182 150.245 137.235 134.706 137.913 134.056C139.05 132.965 140.968 132.831 142.288 133.75L142.551 133.933C140.953 103.354 152.917 96.2446 154.372 95.4972C173.305 85.4496 213.373 99.8375 221.856 103.083C256.179 86.0326 283.615 88.8122 295.714 99.2692C303.817 106.272 305.451 116.579 300.563 127.754C316.3 120.115 319.668 110.167 319.704 110.051C320.176 108.582 321.927 107.714 323.624 108.114C325.321 108.513 326.332 110.026 325.885 111.502L318.382 136.325L347.227 181.143C347.52 181.598 347.658 182.115 347.629 182.636L345.088 227.351C343.34 259.943 330.757 282.549 306.622 296.456C288.042 307.162 262.787 312.41 229.677 312.41V312.405ZM116.599 173.961C116.228 177.38 113.769 201.152 114.542 222.821C114.546 222.967 114.54 223.113 114.516 223.26C111.1 246.471 115.91 265.023 128.814 278.399C145.113 295.294 175.036 304.793 217.752 306.628C255.52 307.979 283.442 303.136 303.081 291.82C325.397 278.962 337.046 257.785 338.692 227.079L341.189 183.153L312.163 138.054C311.761 137.427 311.651 136.689 311.862 135.993L315.049 125.448C310.434 129.222 303.961 133.103 294.96 136.163C293.689 136.594 292.247 136.28 291.362 135.382C290.476 134.485 290.341 133.199 291.026 132.177C298.881 120.459 298.944 109.9 291.198 103.204C281.017 94.4025 255.539 92.3338 223.664 108.595C222.757 109.057 221.647 109.103 220.694 108.719C208.205 103.69 172.539 92.3667 157.673 100.256C157.585 100.307 146.069 107.336 149.429 139.803C149.542 140.912 148.886 141.974 147.755 142.501C146.627 143.027 145.243 142.917 144.241 142.223L140.713 139.772C136.176 144.549 124.694 157.488 116.601 173.961H116.599Z" fill="#3B0372"/>
<path d="M137.978 137.842C133.957 133.345 130.883 128.425 128.597 123.134C128.29 122.413 128.713 121.61 129.544 121.343C130.296 121.102 131.123 121.38 131.502 121.969C134.481 126.389 138.275 130.574 142.606 134.001C145.947 136.768 141.022 140.867 137.978 137.842Z" fill="#3B0372"/>
<g opacity="0.6">
<path d="M184.882 11.8306C204.622 15.142 247.553 25.4655 280.407 55.5005C282.636 57.5381 280.266 60.8185 277.181 59.9669C242.326 50.3268 210.14 36.6937 182.284 16.5839C179.802 14.7911 181.714 11.2987 184.884 11.8306H184.882Z" fill="white"/>
</g>
<g opacity="0.6">
<path d="M71.5344 71.2608C84.7137 68.695 115.335 64.4735 146.858 72.4451C148.58 72.88 148.46 75.0511 146.692 75.3197C121.942 79.0752 96.9055 78.9053 71.5366 74.1391C69.7639 73.8065 69.7639 71.6044 71.5344 71.2608Z" fill="white"/>
</g>
<path d="M162.094 240.736C172.872 240.736 181.609 230.268 181.609 217.355C181.609 204.442 172.872 193.974 162.094 193.974C151.317 193.974 142.58 204.442 142.58 217.355C142.58 230.268 151.317 240.736 162.094 240.736Z" fill="#3B0372"/>
<path d="M162.762 207.466C164.576 203.76 163.647 199.87 160.687 198.779C157.727 197.687 153.857 199.807 152.043 203.513C150.228 207.219 151.157 211.109 154.117 212.201C157.077 213.292 160.948 211.173 162.762 207.466Z" fill="white"/>
<g opacity="0.5">
<path d="M165.362 229.606C164.545 231.907 165.391 234.199 167.255 234.722C169.118 235.244 171.29 233.804 172.107 231.502C172.924 229.201 172.078 226.909 170.215 226.386C168.351 225.864 166.179 227.304 165.362 229.606Z" fill="white"/>
</g>
</svg>
