<svg width="56" height="56" viewBox="0 0 56 56" fill="none" xmlns="http://www.w3.org/2000/svg">
<g clip-path="url(#clip0_25_56)">
<path d="M55.3381 27.7725C55.3381 12.6587 43.0862 0.406738 27.9724 0.406738C12.8585 0.406738 0.606567 12.6587 0.606567 27.7725C0.606567 41.4322 10.6154 52.756 23.7027 54.8134V35.693H16.7569V27.788H23.7027V21.7548C23.7027 14.9018 27.7867 11.1117 34.0365 11.1117C37.0376 11.1117 40.1624 11.6532 40.1624 11.6532V18.3825H36.7127C33.3094 18.3825 32.2574 20.4863 32.2574 22.6521V27.788H39.853L38.6464 35.693H32.2729V54.8134C45.3602 52.756 55.3691 41.4322 55.3691 27.7725H55.3381Z" fill="#337FFF"/>
<path d="M38.631 35.6774L39.8376 27.7725H32.242V22.6365C32.242 20.4708 33.3094 18.3669 36.6973 18.3669H40.147V11.6376C40.147 11.6376 37.0222 11.0962 34.021 11.0962C27.7713 11.0962 23.6873 14.8863 23.6873 21.7393V27.7725H16.7415V35.6774H23.6873V54.7979C25.0796 55.0145 26.5028 55.1382 27.9569 55.1382C29.4111 55.1382 30.8343 55.03 32.2266 54.7979V35.6774H38.6001H38.631Z" fill="white"/>
</g>
<defs>
<clipPath id="clip0_25_56">
<rect width="54.7316" height="54.7316" fill="white" transform="translate(0.606567 0.406738)"/>
</clipPath>
</defs>
</svg>
