<svg width="132" height="138" viewBox="0 0 132 138" fill="none" xmlns="http://www.w3.org/2000/svg">
<g clip-path="url(#clip0_23_9)">
<path fill-rule="evenodd" clip-rule="evenodd" d="M92.8547 80.0361C100.894 79.1979 108.69 74.9847 115.448 67.5951C116.508 66.3378 116.706 65.0584 116.508 63.5805C125.585 52.6174 131.062 37.6397 131.062 26.0369C131.062 8.12536 122.625 6.22833 108.27 3.27249V3.05191C107.21 1.3534 105.509 0.31665 103.411 0.31665C100.452 0.31665 98.133 2.63279 98.133 5.36805C98.133 8.1033 100.452 10.4194 103.411 10.4194C104.67 10.4194 105.73 10.0003 106.591 9.16211L106.79 9.3827C120.726 12.3385 124.326 12.9782 124.326 26.0369C124.326 36.1617 119.268 49.8601 111.229 59.7864C109.97 59.7864 108.69 60.2055 107.629 61.2643C103.632 65.6981 97.095 70.9701 89.4757 70.9701C81.8564 70.9701 75.3413 65.6981 71.3219 61.4849C70.2618 60.4261 69.0029 59.8085 67.722 59.8085C59.7052 49.8821 54.4269 36.1838 54.4269 26.0589C54.4269 13.0003 58.2255 12.3606 72.1611 9.40476V9.18417C73.0003 10.0224 74.2592 10.4415 75.5401 10.4415C78.4995 10.4415 80.8184 8.12536 80.8184 5.39011C80.8184 2.65485 78.4995 0.338709 75.5401 0.338709C73.2212 0.338709 71.5427 1.39752 70.6814 3.07396H70.4826C56.3483 6.22833 47.691 7.92684 47.691 26.0589C47.691 37.6617 53.168 52.6394 62.4437 63.801C62.245 65.0584 62.4437 66.5363 63.5038 67.5951C70.2618 74.7641 77.859 78.9773 85.677 80.0361L85.4562 102.8C85.4562 118.396 71.7415 131.057 55.0674 131.057C38.3932 131.057 24.8773 118.396 24.8773 102.8V82.7714C34.5946 81.2934 41.9931 73.7053 41.9931 64.2202C41.9931 53.6762 32.6953 45.2498 21.2995 45.2498C9.90369 45.2498 0.826782 53.6762 0.826782 64.2202C0.826782 73.7053 8.42399 81.2934 17.9205 82.7714V102.8C17.9205 121.771 34.5946 137.168 55.0674 137.168C75.5401 137.168 92.435 121.771 92.435 102.8V80.0361H92.8547Z" fill="#6C6C6A"/>
<path fill-rule="evenodd" clip-rule="evenodd" d="M21.2995 76.8818C28.8968 76.8818 35.0364 71.1907 35.0364 64.2202C35.0364 57.2497 28.9188 51.5586 21.2995 51.5586C13.6802 51.5586 7.78357 57.0291 7.78357 64.2202C7.78357 71.4113 13.9011 76.8818 21.2995 76.8818Z" fill="#FEFEFE"/>
<path fill-rule="evenodd" clip-rule="evenodd" d="M21.0786 54.7351C26.5557 54.7351 30.9947 58.9483 30.9947 64.2203C30.9947 69.4922 26.5557 73.926 21.0786 73.926C15.6015 73.926 11.1625 69.4922 11.1625 64.2203C11.1625 58.9483 15.3807 54.7351 21.0786 54.7351Z" fill="#67CDFD"/>
</g>
<defs>
<clipPath id="clip0_23_9">
<rect width="130.235" height="136.829" fill="white" transform="translate(0.826782 0.338623)"/>
</clipPath>
</defs>
</svg>
