<svg width="56" height="56" viewBox="0 0 56 56" fill="none" xmlns="http://www.w3.org/2000/svg">
<g clip-path="url(#clip0_25_61)">
<path d="M27.7188 55.1383C42.8325 55.1383 55.0846 42.8862 55.0846 27.7725C55.0846 12.6588 42.8325 0.406738 27.7188 0.406738C12.6051 0.406738 0.353027 12.6588 0.353027 27.7725C0.353027 42.8862 12.6051 55.1383 27.7188 55.1383Z" fill="url(#paint0_linear_25_61)"/>
<path d="M36.2116 17.4233C35.1752 17.4233 34.3243 18.2587 34.3243 19.3106C34.3243 20.3626 35.1597 21.1979 36.2116 21.1979C37.2636 21.1979 38.0989 20.3626 38.0989 19.3106C38.0989 18.2587 37.2636 17.4233 36.2116 17.4233Z" fill="white"/>
<path d="M27.858 19.8369C23.4956 19.8369 19.953 23.3795 19.953 27.7419C19.953 32.1043 23.4956 35.6469 27.858 35.6469C32.2204 35.6469 35.763 32.1043 35.763 27.7419C35.763 23.3795 32.2204 19.8369 27.858 19.8369ZM27.858 32.8005C25.0735 32.8005 22.7994 30.5264 22.7994 27.7419C22.7994 24.9574 25.0735 22.6833 27.858 22.6833C30.6425 22.6833 32.9166 24.9574 32.9166 27.7419C32.9166 30.5264 30.6425 32.8005 27.858 32.8005Z" fill="white"/>
<path d="M34.1232 43.7837H21.3143C15.9928 43.7837 11.6768 39.4522 11.6768 34.1462V21.3373C11.6768 16.0157 15.9928 11.6997 21.3143 11.6997H34.1232C39.4448 11.6997 43.7608 16.0157 43.7608 21.3373V34.1462C43.7608 39.4677 39.4293 43.7837 34.1232 43.7837ZM21.3143 14.7163C17.6635 14.7163 14.6933 17.6865 14.6933 21.3373V34.1462C14.6933 37.797 17.6635 40.7672 21.3143 40.7672H34.1232C37.774 40.7672 40.7442 37.797 40.7442 34.1462V21.3373C40.7442 17.6865 37.774 14.7163 34.1232 14.7163H21.3143Z" fill="white"/>
</g>
<defs>
<linearGradient id="paint0_linear_25_61" x1="2.08563" y1="6.11504" x2="56.8017" y2="52.3383" gradientUnits="userSpaceOnUse">
<stop stop-color="#FBE18A"/>
<stop offset="0.21" stop-color="#FCBB45"/>
<stop offset="0.38" stop-color="#F75274"/>
<stop offset="0.52" stop-color="#D53692"/>
<stop offset="0.74" stop-color="#8F39CE"/>
<stop offset="1" stop-color="#5B4FE9"/>
</linearGradient>
<clipPath id="clip0_25_61">
<rect width="54.7316" height="54.7316" fill="white" transform="translate(0.353027 0.406738)"/>
</clipPath>
</defs>
</svg>
