<svg width="110" height="138" viewBox="0 0 110 138" fill="none" xmlns="http://www.w3.org/2000/svg">
<g clip-path="url(#clip0_23_15)">
<path fill-rule="evenodd" clip-rule="evenodd" d="M109.463 29.3832C109.206 25.9329 106.758 21.9933 103.306 20.5257L60.2062 1.31708C58.7377 0.82785 56.754 0.338623 54.7961 0.338623C52.8382 0.338623 51.0864 0.82785 49.6179 1.31708L6.28609 20.5257C3.09159 21.9933 0.360811 25.9329 0.360811 29.3832C0.10319 31.1084 -1.13339 73.6968 6.77557 87.7299C14.6588 101.506 49.8756 135.005 51.344 135.983C52.8382 136.704 54.7961 137.193 56.754 137.193C58.712 137.193 60.438 136.704 61.9322 135.983C63.4007 135.236 95.1653 101.531 103.306 87.7299C111.189 73.6968 109.463 31.1341 109.463 29.3832Z" fill="#727270"/>
<path fill-rule="evenodd" clip-rule="evenodd" d="M63.4264 56.9345C63.4264 54.9776 62.4475 53.2267 60.9533 51.759C59.2272 50.5231 57.2693 49.8021 54.7961 49.8021C52.323 49.8021 50.365 50.5488 48.639 51.759C46.9129 53.2267 46.4234 58.6339 46.4234 60.6166C46.4234 61.8525 45.934 62.831 44.9292 63.5777C43.9503 64.5561 42.7137 64.7879 41.2453 64.7879C39.7768 64.7879 38.5402 64.5561 37.5613 63.5777C36.5823 62.831 36.0928 61.8525 36.0928 60.6166C36.0928 58.4022 36.3505 52.7375 37.3294 50.7806C38.3084 48.8237 39.545 47.0727 41.271 45.8625C42.9971 44.3949 44.955 43.1589 47.4282 42.4122C49.6437 41.6655 52.0911 41.1763 54.8219 41.1763C57.2693 41.1763 59.7424 41.6655 62.1898 42.4122C64.4054 43.1589 66.3891 44.3949 68.0894 45.8625C69.8154 47.0727 71.052 48.8237 72.031 50.7806C73.0099 52.7375 73.4994 54.7201 73.4994 56.9345C73.4994 58.1447 73.0099 59.1489 72.031 59.8956C71.052 60.8741 69.8154 61.1316 68.5788 61.1316C67.1104 61.1316 65.8738 60.8741 64.8949 59.8956C63.9159 59.1489 63.4264 58.1705 63.4264 56.9345Z" fill="#67CDFD"/>
<path fill-rule="evenodd" clip-rule="evenodd" d="M54.3066 24.9543C59.4848 24.9543 64.4054 25.7011 68.8365 27.1687C73.5252 28.8939 77.4668 31.1083 80.8931 34.0437C84.3452 36.7473 87.0503 40.1976 89.0339 43.9054C90.9919 47.845 91.9966 51.7846 91.9966 56.1876C91.9966 59.8954 91.2752 63.32 89.781 67.0278C89.5234 67.2596 89.2915 67.5171 89.2915 67.7488C88.2868 69.2422 87.3079 70.7099 86.3289 71.9458C85.35 73.1818 84.371 74.392 83.3663 75.6537C82.3873 77.1213 81.4084 78.1255 80.4036 79.104C80.1718 79.3357 79.9142 79.5932 79.6823 79.5932C79.4247 79.8507 79.1671 80.0824 78.9352 80.5717C77.6986 81.5501 76.7197 82.7861 76.2302 83.5328C75.5088 84.2795 75.2512 85.7472 75.5088 87.7298C75.5088 91.6694 75.7407 94.6048 75.5088 96.5874C75.5088 98.3126 75.2512 99.7803 75.0194 101.016C74.2723 104.956 72.0567 107.891 68.8622 109.874C43.7442 125.632 69.6093 74.6752 72.8038 70.5039C73.5509 69.5255 74.2723 68.7787 75.0194 67.8003C75.5088 66.8218 76.2302 66.1009 76.7454 65.0967C77.4925 64.35 77.982 63.629 78.4715 62.8823C78.961 61.9038 79.1928 60.9254 79.4504 59.6894C79.7081 58.4535 79.7081 57.475 79.7081 56.2391C79.7081 53.278 79.1928 50.5744 77.7244 47.8707C76.5136 45.4246 74.5299 43.1845 72.3143 41.2276C69.8412 39.2707 67.3938 37.7772 64.1993 36.7988C60.979 35.5628 57.7845 35.0736 54.3582 35.0736C50.6484 35.0736 47.4539 35.5628 44.2594 36.7988C41.2968 37.7772 38.5917 39.2449 36.1444 41.2276C33.9288 43.1845 32.2027 45.4246 30.7343 47.8707C29.4977 50.5744 30.2448 46.4031 30.2448 49.0809C30.2448 50.5744 29.4977 51.7846 28.5188 52.7888C27.2822 53.7672 25.8137 54.2564 24.0877 54.2564C22.3616 54.2564 20.8932 53.7672 19.6566 52.7888C18.42 51.8103 17.9305 50.5744 17.9305 49.0809C17.9305 44.9096 17.4411 47.8707 19.399 43.9312C21.3569 40.2234 24.0619 36.7988 27.514 34.0694C30.9662 31.1083 34.882 28.8939 39.5707 27.1945C44.0018 25.7268 48.9224 24.9801 54.3582 24.9801L54.3066 24.9543Z" fill="#67CDFD"/>
</g>
<defs>
<clipPath id="clip0_23_15">
<rect width="109.463" height="136.829" fill="white" transform="translate(0.154724 0.338623)"/>
</clipPath>
</defs>
</svg>
