<svg width="101" height="138" viewBox="0 0 101 138" fill="none" xmlns="http://www.w3.org/2000/svg">
<path fill-rule="evenodd" clip-rule="evenodd" d="M52.1013 123.142L71.1243 88.2957L70.8135 87.7035L64.286 77.8855L60.7114 74.3011C48.5267 62.987 32.7674 60.3066 25.0588 59.7144H24.1574L3.98425 96.6176C1.62191 100.794 0.409663 105.843 0.720496 110.924C1.03133 120.461 6.34659 129.095 14.9878 133.864C28.0739 141.001 44.7034 136.233 52.1324 123.142H52.1013Z" fill="#727270"/>
<path fill-rule="evenodd" clip-rule="evenodd" d="M26.8616 51.9222L33.1094 53.1066C45.294 54.8832 61.6128 60.2442 72.0257 75.7348L76.1909 81.688L97.2965 42.9457C99.9697 38.177 101.182 33.1277 100.871 27.7356C100.56 17.6059 94.9342 8.66058 86.0132 3.89182C72.3366 -3.86909 54.8055 1.21135 47.4077 15.2059L26.8927 51.8599L26.8616 51.9222Z" fill="#727270"/>
<path fill-rule="evenodd" clip-rule="evenodd" d="M81.817 11.715C88.0647 14.9877 91.9191 21.2525 92.2299 28.1096C92.2299 31.9744 91.6393 35.5588 89.8676 38.8315L75.2895 65.3557C64.5968 53.1377 50.9201 47.7768 40.5383 45.408L54.8055 19.4759C60.1519 9.65792 72.3365 6.35408 81.8481 11.7462L81.817 11.715Z" fill="#67CDFD"/>
</svg>
