<svg width="56" height="56" viewBox="0 0 56 56" fill="none" xmlns="http://www.w3.org/2000/svg">
<g clip-path="url(#clip0_25_69)">
<path d="M28.324 55.1383C43.4377 55.1383 55.6898 42.8862 55.6898 27.7725C55.6898 12.6588 43.4377 0.406738 28.324 0.406738C13.2103 0.406738 0.958252 12.6588 0.958252 27.7725C0.958252 42.8862 13.2103 55.1383 28.324 55.1383Z" fill="#33CCFF"/>
<path d="M43.4533 18.3981C42.5096 18.8312 41.4577 19.0942 40.4367 19.2644C40.9163 19.187 41.6279 18.3053 41.9218 17.9495C42.3549 17.408 42.7262 16.7893 42.9273 16.1241C42.9583 16.0777 42.9737 16.0003 42.9273 15.9694C42.8654 15.9384 42.819 15.9694 42.7726 15.9694C41.6279 16.5882 40.4522 17.0213 39.1991 17.3462C39.0909 17.3771 39.0135 17.3462 38.9516 17.2843C38.8433 17.1605 38.7505 17.0522 38.6422 16.9594C38.1163 16.5108 37.5439 16.155 36.9096 15.892C36.0743 15.5517 35.1616 15.4125 34.2489 15.4589C33.3671 15.5207 32.5008 15.7683 31.7273 16.1705C30.9384 16.5727 30.2422 17.1451 29.6853 17.8257C29.1129 18.5373 28.6798 19.3727 28.4632 20.2545C28.2466 21.1053 28.2776 21.9561 28.4013 22.8224C28.4168 22.9616 28.4013 22.9926 28.2776 22.9616C23.3582 22.2346 19.2897 20.471 15.9792 16.6964C15.84 16.5263 15.7626 16.5263 15.6389 16.6964C14.1847 18.8622 14.8963 22.3583 16.7063 24.06C16.9538 24.292 17.2013 24.5241 17.4643 24.7252C17.3715 24.7407 16.1649 24.6169 15.0974 24.06C14.9582 23.9672 14.8809 24.0136 14.8654 24.1837C14.8654 24.4158 14.8654 24.6324 14.9118 24.8953C15.1903 27.092 16.7063 29.134 18.7947 29.923C19.0422 30.0313 19.3207 30.1241 19.5836 30.1705C19.1041 30.2788 18.6245 30.3561 17.2632 30.2478C17.093 30.2169 17.0312 30.2943 17.093 30.4644C18.114 33.249 20.3262 34.0843 21.9814 34.5639C22.198 34.5948 22.4301 34.5948 22.6466 34.6567C22.6466 34.6722 22.6157 34.6722 22.6002 34.7031C22.0588 35.5385 20.1405 36.1572 19.2588 36.4666C17.6499 37.0235 15.8864 37.2865 14.1847 37.1164C13.9063 37.07 13.8599 37.0854 13.7825 37.1164C13.7052 37.1628 13.7825 37.2246 13.8599 37.302C14.2002 37.534 14.556 37.7351 14.9118 37.9208C15.9947 38.4932 17.124 38.9572 18.2997 39.2821C24.3947 40.9683 31.2632 39.7307 35.8268 35.1827C39.4157 31.6092 40.6842 26.6898 40.6842 21.755C40.6842 21.5694 40.9163 21.4611 41.04 21.3528C41.9682 20.6567 42.7262 19.8058 43.4223 18.8777C43.577 18.6611 43.577 18.4754 43.577 18.3981V18.3672C43.577 18.2898 43.577 18.3053 43.4533 18.3672V18.3981Z" fill="white"/>
</g>
<defs>
<clipPath id="clip0_25_69">
<rect width="54.7316" height="54.7316" fill="white" transform="translate(0.958252 0.406738)"/>
</clipPath>
</defs>
</svg>
