<svg width="115" height="111" viewBox="0 0 115 111" fill="none" xmlns="http://www.w3.org/2000/svg">
<g clip-path="url(#clip0_10_70)">
<path fill-rule="evenodd" clip-rule="evenodd" d="M0.35539 16.296C-0.342172 20.8615 1.21816 23.3284 3.69635 23.8623C6.15617 24.0464 8.43243 22.2791 9.31356 17.5294C10.1947 12.7797 6.67016 6.61255 6.67016 6.61255C6.67016 6.61255 1.23652 11.3622 0.35539 16.296Z" fill="#67CDFD"/>
<path fill-rule="evenodd" clip-rule="evenodd" d="M87.0367 110.093L84.4116 107.442L89.8453 103.042L76.8669 88.9584L93.1679 75.9429L106.165 89.8421L111.598 85.4422L114.242 88.2589L87.0367 110.093Z" fill="#727270"/>
<path fill-rule="evenodd" clip-rule="evenodd" d="M97.0412 70.6593L95.8113 69.2602L91.9563 72.4266L41.4198 18.5787H41.2362L24.5681 15.4123L10.8922 0.81349L10.7087 0.629395L10.1947 2.39671L22.9894 16.6457L23.3382 33.1775L74.04 87.0254L70.7174 89.842L71.9473 91.2596L93.1679 73.8257L97.0412 70.6593Z" fill="#727270"/>
<path fill-rule="evenodd" clip-rule="evenodd" d="M48.6157 28.9616L40.8874 35.1104L42.3009 36.528L49.8456 30.3792L52.4706 33.1774L48.4321 36.7121L49.662 38.1112L53.8658 34.7606L56.6927 37.5773L52.3054 41.0935L53.7006 42.327L57.9043 38.9948L60.3641 41.6274L53.003 47.7946L54.2145 49.1937L61.7776 43.0449L64.4026 45.8616L60.1989 49.1937L61.4288 50.6113L65.6325 47.0766L68.4411 50.0774L64.2374 53.4279L65.449 55.0112L69.671 51.4765L72.9936 55.0112L65.449 60.9943L66.6789 62.3934L74.2236 56.2446L76.3346 58.5274L72.2961 61.6938L73.6912 63.0929L77.5645 59.9265L80.3731 62.7432L76.3346 65.9096L77.7297 67.3271L81.603 64.1607L90.3593 73.66L75.4535 85.7919L25.2657 32.4779L24.9169 17.3452L40.1899 20.1619L48.6157 28.9616Z" fill="#67CDFD"/>
</g>
<defs>
<clipPath id="clip0_10_70">
<rect width="114.051" height="109.463" fill="white" transform="translate(0.190186 0.629395)"/>
</clipPath>
</defs>
</svg>
